<svg xmlns="http://www.w3.org/2000/svg" viewBox="0 0 800 450" width="800" height="450" font-family="Inter, system-ui, sans-serif">
  <defs>
    <linearGradient id="gvww0z3bg" x1="0" y1="0" x2="1" y2="1"><stop offset="0" stop-color="#0F2A52"></stop><stop offset="1" stop-color="#1B3E70"></stop></linearGradient>
    <radialGradient id="gvww0z3gl" cx="0.85" cy="0.1" r="0.7"><stop offset="0" stop-color="#F5A524" stop-opacity="0.18"></stop><stop offset="1" stop-color="#F5A524" stop-opacity="0"></stop></radialGradient>
    <pattern id="gvww0z3gr" width="40" height="40" patternUnits="userSpaceOnUse"><path d="M40 0H0V40" fill="none" stroke="rgba(255,255,255,0.05)" stroke-width="1"></path></pattern>
  </defs>
  <rect width="800" height="450" fill="url(#gvww0z3bg)"></rect>
  <rect width="800" height="450" fill="url(#gvww0z3gr)"></rect>
  <rect width="800" height="450" fill="url(#gvww0z3gl)"></rect>
  
    <text x="60" y="50" font-family="JetBrains Mono, monospace" font-size="10" fill="#F5A524" letter-spacing="3">ONE HABIT AT A TIME</text>
    <g transform="translate(60,80)"><rect width="680" height="320" rx="14" style="fill:#fff;stroke:rgba(15,42,82,0.1)"></rect>
      <text x="24" y="42" font-family="Fraunces, serif" font-size="22" fill="#0B1220" font-weight="700">The 12-week transition</text>
      <g transform="translate(24,74)">
        <circle cx="14" cy="14" r="14" fill="#0FA88A"></circle>
        <text x="14" y="19" text-anchor="middle" font-family="JetBrains Mono, monospace" font-size="12" fill="#fff" font-weight="700">1</text>
        <rect x="42" y="4" width="580" height="20" rx="6" fill="#F6F7FB"></rect>
        <rect x="42" y="4" width="580" height="20" rx="6" fill="#0FA88A" opacity="0.35"></rect>
        <text x="54" y="19" font-size="12" fill="#0B1220" font-weight="500">WhatsApp booking</text>
        <text x="640" y="19" font-size="10" fill="#495166" letter-spacing="1" font-family="JetBrains Mono, monospace">WK 2</text>
      </g><g transform="translate(24,112)">
        <circle cx="14" cy="14" r="14" fill="#0FA88A"></circle>
        <text x="14" y="19" text-anchor="middle" font-family="JetBrains Mono, monospace" font-size="12" fill="#fff" font-weight="700">2</text>
        <rect x="42" y="4" width="580" height="20" rx="6" fill="#F6F7FB"></rect>
        <rect x="42" y="4" width="580" height="20" rx="6" fill="#0FA88A" opacity="0.35"></rect>
        <text x="54" y="19" font-size="12" fill="#0B1220" font-weight="500">Reminders live</text>
        <text x="640" y="19" font-size="10" fill="#495166" letter-spacing="1" font-family="JetBrains Mono, monospace">WK 4</text>
      </g><g transform="translate(24,150)">
        <circle cx="14" cy="14" r="14" fill="#0FA88A"></circle>
        <text x="14" y="19" text-anchor="middle" font-family="JetBrains Mono, monospace" font-size="12" fill="#fff" font-weight="700">3</text>
        <rect x="42" y="4" width="580" height="20" rx="6" fill="#F6F7FB"></rect>
        <rect x="42" y="4" width="580" height="20" rx="6" fill="#0FA88A" opacity="0.35"></rect>
        <text x="54" y="19" font-size="12" fill="#0B1220" font-weight="500">Reception dashboard</text>
        <text x="640" y="19" font-size="10" fill="#495166" letter-spacing="1" font-family="JetBrains Mono, monospace">WK 6</text>
      </g><g transform="translate(24,188)">
        <circle cx="14" cy="14" r="14" fill="#F5A524"></circle>
        <text x="14" y="19" text-anchor="middle" font-family="JetBrains Mono, monospace" font-size="12" fill="#fff" font-weight="700">4</text>
        <rect x="42" y="4" width="580" height="20" rx="6" fill="#F6F7FB"></rect>
        <rect x="42" y="4" width="420" height="20" rx="6" fill="#F5A524" opacity="0.35"></rect>
        <text x="54" y="19" font-size="12" fill="#0B1220" font-weight="500">Multi-doctor queue</text>
        <text x="640" y="19" font-size="10" fill="#495166" letter-spacing="1" font-family="JetBrains Mono, monospace">WK 8</text>
      </g><g transform="translate(24,226)">
        <circle cx="14" cy="14" r="14" fill="#DEE2EC"></circle>
        <text x="14" y="19" text-anchor="middle" font-family="JetBrains Mono, monospace" font-size="12" fill="#fff" font-weight="700">5</text>
        <rect x="42" y="4" width="580" height="20" rx="6" fill="#F6F7FB"></rect>
        <rect x="42" y="4" width="200" height="20" rx="6" fill="#DEE2EC" opacity="0.35"></rect>
        <text x="54" y="19" font-size="12" fill="#0B1220" font-weight="500">Follow-ups &amp; recalls</text>
        <text x="640" y="19" font-size="10" fill="#495166" letter-spacing="1" font-family="JetBrains Mono, monospace">WK 10</text>
      </g><g transform="translate(24,264)">
        <circle cx="14" cy="14" r="14" fill="#DEE2EC"></circle>
        <text x="14" y="19" text-anchor="middle" font-family="JetBrains Mono, monospace" font-size="12" fill="#fff" font-weight="700">6</text>
        <rect x="42" y="4" width="580" height="20" rx="6" fill="#F6F7FB"></rect>
        <rect x="42" y="4" width="120" height="20" rx="6" fill="#DEE2EC" opacity="0.35"></rect>
        <text x="54" y="19" font-size="12" fill="#0B1220" font-weight="500">Reviews &amp; analytics</text>
        <text x="640" y="19" font-size="10" fill="#495166" letter-spacing="1" font-family="JetBrains Mono, monospace">WK 12</text>
      </g>
    </g>
  
</svg>