<svg xmlns="http://www.w3.org/2000/svg" viewBox="0 0 800 450" width="800" height="450" font-family="Inter, system-ui, sans-serif">
  <defs>
    <linearGradient id="g1p26ucbg" x1="0" y1="0" x2="1" y2="1"><stop offset="0" stop-color="#E48A0A"></stop><stop offset="1" stop-color="#14325C"></stop></linearGradient>
    <radialGradient id="g1p26ucgl" cx="0.85" cy="0.1" r="0.7"><stop offset="0" stop-color="#F5A524" stop-opacity="0.18"></stop><stop offset="1" stop-color="#F5A524" stop-opacity="0"></stop></radialGradient>
    <pattern id="g1p26ucgr" width="40" height="40" patternUnits="userSpaceOnUse"><path d="M40 0H0V40" fill="none" stroke="rgba(255,255,255,0.05)" stroke-width="1"></path></pattern>
  </defs>
  <rect width="800" height="450" fill="url(#g1p26ucbg)"></rect>
  <rect width="800" height="450" fill="url(#g1p26ucgr)"></rect>
  <rect width="800" height="450" fill="url(#g1p26ucgl)"></rect>
  
    <text x="60" y="50" font-family="JetBrains Mono, monospace" font-size="10" fill="#F5A524" letter-spacing="3">GROWTH · CALMER PLAYBOOK</text>
    <g transform="translate(60,80)"><rect width="340" height="320" rx="14" style="fill:#fff;stroke:rgba(15,42,82,0.1)"></rect>
      <text x="18" y="34" font-size="11" fill="#495166" letter-spacing="1">GOOGLE REVIEWS · JUNE</text>
      <g transform="translate(18,50)"><text x="0" y="14" font-size="14" fill="#F5A524">★★★★★</text><text x="80" y="14" font-size="11" fill="#0B1220">S. Nair</text><text x="240" y="14" font-size="9" fill="#495166" letter-spacing="1">2D</text></g><g transform="translate(18,74)"><text x="0" y="14" font-size="14" fill="#F5A524">★★★★★</text><text x="80" y="14" font-size="11" fill="#0B1220">R. Verma</text><text x="240" y="14" font-size="9" fill="#495166" letter-spacing="1">3D</text></g><g transform="translate(18,98)"><text x="0" y="14" font-size="14" fill="#F5A524">★★★★★</text><text x="80" y="14" font-size="11" fill="#0B1220">P. Rao</text><text x="240" y="14" font-size="9" fill="#495166" letter-spacing="1">5D</text></g><g transform="translate(18,122)"><text x="0" y="14" font-size="14" fill="#F5A524">★★★★☆</text><text x="80" y="14" font-size="11" fill="#0B1220">A. Kumar</text><text x="240" y="14" font-size="9" fill="#495166" letter-spacing="1">1W</text></g><g transform="translate(18,146)"><text x="0" y="14" font-size="14" fill="#F5A524">★★★★★</text><text x="80" y="14" font-size="11" fill="#0B1220">M. Iyer</text><text x="240" y="14" font-size="9" fill="#495166" letter-spacing="1">1W</text></g><g transform="translate(18,170)"><text x="0" y="14" font-size="14" fill="#F5A524">★★★★★</text><text x="80" y="14" font-size="11" fill="#0B1220">V. Shah</text><text x="240" y="14" font-size="9" fill="#495166" letter-spacing="1">2W</text></g><g transform="translate(18,194)"><text x="0" y="14" font-size="14" fill="#F5A524">★★★★★</text><text x="80" y="14" font-size="11" fill="#0B1220">D. Menon</text><text x="240" y="14" font-size="9" fill="#495166" letter-spacing="1">2W</text></g><g transform="translate(18,218)"><text x="0" y="14" font-size="14" fill="#F5A524">★★★★★</text><text x="80" y="14" font-size="11" fill="#0B1220">K. Reddy</text><text x="240" y="14" font-size="9" fill="#495166" letter-spacing="1">3W</text></g><g transform="translate(18,242)"><text x="0" y="14" font-size="14" fill="#F5A524">★★★★★</text><text x="80" y="14" font-size="11" fill="#0B1220">L. Bose</text><text x="240" y="14" font-size="9" fill="#495166" letter-spacing="1">3W</text></g><g transform="translate(18,266)"><text x="0" y="14" font-size="14" fill="#F5A524">★★★★★</text><text x="80" y="14" font-size="11" fill="#0B1220">N. Das</text><text x="240" y="14" font-size="9" fill="#495166" letter-spacing="1">4W</text></g>
      <text x="18" y="304" font-family="Fraunces, serif" font-size="22" fill="#0FA88A" font-weight="700">4.9 ★</text>
    </g>
    <g transform="translate(420,80)"><rect width="320" height="320" rx="14" style="fill:#fff;stroke:rgba(15,42,82,0.1)"></rect>
      <text x="18" y="34" font-size="11" fill="#495166" letter-spacing="1">REVIEW FUNNEL</text>
      <g transform="translate(18,54)"><rect width="284" height="40" rx="8" fill="#0F2A52"></rect><text x="14" y="26" font-size="12" fill="#fff">100 patients seen</text><text x="240" y="26" font-size="12" fill="#F5A524" font-weight="700">100</text></g>
      <g transform="translate(38,102)"><rect width="244" height="40" rx="8" fill="#14325C"></rect><text x="14" y="26" font-size="12" fill="#fff">Asked for feedback</text><text x="200" y="26" font-size="12" fill="#F5A524" font-weight="700">96</text></g>
      <g transform="translate(58,150)"><rect width="204" height="40" rx="8" fill="#1B3E70"></rect><text x="14" y="26" font-size="12" fill="#fff">Routed to Google</text><text x="160" y="26" font-size="12" fill="#F5A524" font-weight="700">74</text></g>
      <g transform="translate(78,198)"><rect width="164" height="40" rx="8" fill="#0FA88A"></rect><text x="14" y="26" font-size="12" fill="#fff">Left a review</text><text x="120" y="26" font-size="12" fill="#fff" font-weight="700">42</text></g>
      <g transform="translate(28,254)"><rect width="264" height="50" rx="8" fill="#F6F7FB" stroke="#DEE2EC"></rect><text x="14" y="22" font-size="11" fill="#495166" letter-spacing="1">UNHAPPY · ROUTED BACK</text><text x="14" y="40" font-size="13" fill="#0B1220" font-weight="600">4 recovered · 0 public 1★</text></g>
    </g>
  
</svg>