<svg xmlns="http://www.w3.org/2000/svg" viewBox="0 0 800 450" width="800" height="450" font-family="Inter, system-ui, sans-serif">
  <defs>
    <linearGradient id="gww6mc8bg" x1="0" y1="0" x2="1" y2="1"><stop offset="0" stop-color="#14325C"></stop><stop offset="1" stop-color="#081B37"></stop></linearGradient>
    <radialGradient id="gww6mc8gl" cx="0.85" cy="0.1" r="0.7"><stop offset="0" stop-color="#F5A524" stop-opacity="0.18"></stop><stop offset="1" stop-color="#F5A524" stop-opacity="0"></stop></radialGradient>
    <pattern id="gww6mc8gr" width="40" height="40" patternUnits="userSpaceOnUse"><path d="M40 0H0V40" fill="none" stroke="rgba(255,255,255,0.05)" stroke-width="1"></path></pattern>
  </defs>
  <rect width="800" height="450" fill="url(#gww6mc8bg)"></rect>
  <rect width="800" height="450" fill="url(#gww6mc8gr)"></rect>
  <rect width="800" height="450" fill="url(#gww6mc8gl)"></rect>
  
    <text x="60" y="50" font-family="JetBrains Mono, monospace" font-size="10" fill="#F5A524" letter-spacing="3">TOKEN + SLOT · HYBRID BOOKING</text>
    <g transform="translate(60,80)"><rect width="340" height="320" rx="14" style="fill:#fff;stroke:rgba(15,42,82,0.1)"></rect>
      <text x="18" y="34" font-size="11" fill="#495166" letter-spacing="1">SLOTS · FRIDAY 26 JUN</text>
      <g transform="translate(18,60)"><rect width="90" height="46" rx="8" fill="#F5A524" stroke="#E48A0A"></rect><text x="10" y="20" font-family="JetBrains Mono, monospace" font-size="11" fill="#fff" font-weight="600">09:00</text><text x="10" y="36" font-size="9" fill="rgba(255,255,255,0.85)" letter-spacing="1">BOOKED</text></g><g transform="translate(120,60)"><rect width="90" height="46" rx="8" fill="#F5A524" stroke="#E48A0A"></rect><text x="10" y="20" font-family="JetBrains Mono, monospace" font-size="11" fill="#fff" font-weight="600">09:15</text><text x="10" y="36" font-size="9" fill="rgba(255,255,255,0.85)" letter-spacing="1">BOOKED</text></g><g transform="translate(222,60)"><rect width="90" height="46" rx="8" fill="#F6F7FB" stroke="#DEE2EC"></rect><text x="10" y="20" font-family="JetBrains Mono, monospace" font-size="11" fill="#0B1220" font-weight="600">09:30</text><text x="10" y="36" font-size="9" fill="#495166" letter-spacing="1">FREE</text></g><g transform="translate(18,120)"><rect width="90" height="46" rx="8" fill="#F5A524" stroke="#E48A0A"></rect><text x="10" y="20" font-family="JetBrains Mono, monospace" font-size="11" fill="#fff" font-weight="600">09:45</text><text x="10" y="36" font-size="9" fill="rgba(255,255,255,0.85)" letter-spacing="1">BOOKED</text></g><g transform="translate(120,120)"><rect width="90" height="46" rx="8" fill="#F5A524" stroke="#E48A0A"></rect><text x="10" y="20" font-family="JetBrains Mono, monospace" font-size="11" fill="#fff" font-weight="600">10:00</text><text x="10" y="36" font-size="9" fill="rgba(255,255,255,0.85)" letter-spacing="1">BOOKED</text></g><g transform="translate(222,120)"><rect width="90" height="46" rx="8" fill="#F6F7FB" stroke="#DEE2EC"></rect><text x="10" y="20" font-family="JetBrains Mono, monospace" font-size="11" fill="#0B1220" font-weight="600">10:15</text><text x="10" y="36" font-size="9" fill="#495166" letter-spacing="1">FREE</text></g><g transform="translate(18,180)"><rect width="90" height="46" rx="8" fill="#F6F7FB" stroke="#DEE2EC"></rect><text x="10" y="20" font-family="JetBrains Mono, monospace" font-size="11" fill="#0B1220" font-weight="600">10:30</text><text x="10" y="36" font-size="9" fill="#495166" letter-spacing="1">FREE</text></g><g transform="translate(120,180)"><rect width="90" height="46" rx="8" fill="#F5A524" stroke="#E48A0A"></rect><text x="10" y="20" font-family="JetBrains Mono, monospace" font-size="11" fill="#fff" font-weight="600">10:45</text><text x="10" y="36" font-size="9" fill="rgba(255,255,255,0.85)" letter-spacing="1">BOOKED</text></g><g transform="translate(222,180)"><rect width="90" height="46" rx="8" fill="#F6F7FB" stroke="#DEE2EC"></rect><text x="10" y="20" font-family="JetBrains Mono, monospace" font-size="11" fill="#0B1220" font-weight="600">11:00</text><text x="10" y="36" font-size="9" fill="#495166" letter-spacing="1">FREE</text></g><g transform="translate(18,240)"><rect width="90" height="46" rx="8" fill="#F5A524" stroke="#E48A0A"></rect><text x="10" y="20" font-family="JetBrains Mono, monospace" font-size="11" fill="#fff" font-weight="600">11:15</text><text x="10" y="36" font-size="9" fill="rgba(255,255,255,0.85)" letter-spacing="1">BOOKED</text></g><g transform="translate(120,240)"><rect width="90" height="46" rx="8" fill="#F5A524" stroke="#E48A0A"></rect><text x="10" y="20" font-family="JetBrains Mono, monospace" font-size="11" fill="#fff" font-weight="600">11:30</text><text x="10" y="36" font-size="9" fill="rgba(255,255,255,0.85)" letter-spacing="1">BOOKED</text></g><g transform="translate(222,240)"><rect width="90" height="46" rx="8" fill="#F6F7FB" stroke="#DEE2EC"></rect><text x="10" y="20" font-family="JetBrains Mono, monospace" font-size="11" fill="#0B1220" font-weight="600">11:45</text><text x="10" y="36" font-size="9" fill="#495166" letter-spacing="1">FREE</text></g>
    </g>
    <g transform="translate(420,80)"><rect width="320" height="320" rx="14" style="fill:#fff;stroke:rgba(15,42,82,0.1)"></rect>
      <rect width="320" height="46" rx="14" fill="#0F2A52"></rect>
      <text x="18" y="30" font-size="11" fill="#fff" letter-spacing="2" font-family="JetBrains Mono, monospace">LIVE TOKEN QUEUE</text>
      <g transform="translate(18,64)"><rect width="284" height="36" rx="8" fill="#F6F7FB" stroke="#DEE2EC"></rect><text x="14" y="24" font-family="JetBrains Mono, monospace" font-size="12" fill="#E48A0A" font-weight="600">T-11</text><text x="60" y="24" font-size="12" fill="#0B1220">Priya Nair</text><text x="230" y="24" font-size="9" fill="#0FA88A" letter-spacing="1">DONE</text></g><g transform="translate(18,110)"><rect width="284" height="36" rx="8" fill="#F6F7FB" stroke="#DEE2EC"></rect><text x="14" y="24" font-family="JetBrains Mono, monospace" font-size="12" fill="#E48A0A" font-weight="600">T-12</text><text x="60" y="24" font-size="12" fill="#0B1220">Rahul Verma</text><text x="230" y="24" font-size="9" fill="#0FA88A" letter-spacing="1">DONE</text></g><g transform="translate(18,156)"><rect width="284" height="36" rx="8" fill="#F5A524" stroke="#E48A0A"></rect><text x="14" y="24" font-family="JetBrains Mono, monospace" font-size="12" fill="#fff" font-weight="600">T-13</text><text x="60" y="24" font-size="12" fill="#fff">Shyam Sharma</text><text x="230" y="24" font-size="9" fill="#fff" letter-spacing="1">IN ROOM</text></g><g transform="translate(18,202)"><rect width="284" height="36" rx="8" fill="#F6F7FB" stroke="#DEE2EC"></rect><text x="14" y="24" font-family="JetBrains Mono, monospace" font-size="12" fill="#E48A0A" font-weight="600">T-14</text><text x="60" y="24" font-size="12" fill="#0B1220">Meera Rao</text><text x="230" y="24" font-size="9" fill="#495166" letter-spacing="1">NEXT</text></g><g transform="translate(18,248)"><rect width="284" height="36" rx="8" fill="#F6F7FB" stroke="#DEE2EC"></rect><text x="14" y="24" font-family="JetBrains Mono, monospace" font-size="12" fill="#E48A0A" font-weight="600">T-15</text><text x="60" y="24" font-size="12" fill="#0B1220">Arun G.</text><text x="230" y="24" font-size="9" fill="#495166" letter-spacing="1">WAIT</text></g>
    </g>
  
</svg>