<svg xmlns="http://www.w3.org/2000/svg" viewBox="0 0 800 450" width="800" height="450" font-family="Inter, system-ui, sans-serif">
  <defs>
    <linearGradient id="gcf0hacbg" x1="0" y1="0" x2="1" y2="1"><stop offset="0" stop-color="#0FA88A"></stop><stop offset="1" stop-color="#0F2A52"></stop></linearGradient>
    <radialGradient id="gcf0hacgl" cx="0.85" cy="0.1" r="0.7"><stop offset="0" stop-color="#F5A524" stop-opacity="0.18"></stop><stop offset="1" stop-color="#F5A524" stop-opacity="0"></stop></radialGradient>
    <pattern id="gcf0hacgr" width="40" height="40" patternUnits="userSpaceOnUse"><path d="M40 0H0V40" fill="none" stroke="rgba(255,255,255,0.05)" stroke-width="1"></path></pattern>
  </defs>
  <rect width="800" height="450" fill="url(#gcf0hacbg)"></rect>
  <rect width="800" height="450" fill="url(#gcf0hacgr)"></rect>
  <rect width="800" height="450" fill="url(#gcf0hacgl)"></rect>
  
    <text x="60" y="50" font-family="JetBrains Mono, monospace" font-size="10" fill="#F5A524" letter-spacing="3">RECOVERED SLOTS · APRIL–JUNE</text>
    <g transform="translate(60,80)"><rect width="680" height="320" rx="14" style="fill:#fff;stroke:rgba(15,42,82,0.1)"></rect>
      <rect width="680" height="46" rx="14" fill="#0F2A52"></rect>
      <text x="18" y="30" font-size="11" fill="#fff" letter-spacing="2" font-family="JetBrains Mono, monospace">NO-SHOW TREND</text>
      <g transform="translate(18,66)"><rect width="150" height="80" rx="12" fill="#F6F7FB" stroke="#DEE2EC"></rect><text x="14" y="34" font-family="Fraunces, serif" font-size="30" fill="#E86B6B" font-weight="700">15%</text><text x="14" y="66" font-size="10" fill="#495166" letter-spacing="1">APR NO-SHOW</text></g>
      <g transform="translate(180,66)"><rect width="150" height="80" rx="12" fill="#F6F7FB" stroke="#DEE2EC"></rect><text x="14" y="34" font-family="Fraunces, serif" font-size="30" fill="#F5A524" font-weight="700">9%</text><text x="14" y="66" font-size="10" fill="#495166" letter-spacing="1">MAY</text></g>
      <g transform="translate(342,66)"><rect width="150" height="80" rx="12" fill="#F6F7FB" stroke="#DEE2EC"></rect><text x="14" y="34" font-family="Fraunces, serif" font-size="30" fill="#0FA88A" font-weight="700">5%</text><text x="14" y="66" font-size="10" fill="#495166" letter-spacing="1">JUN</text></g>
      <g transform="translate(504,66)"><rect width="158" height="80" rx="12" fill="#F6F7FB" stroke="#DEE2EC"></rect><text x="14" y="34" font-family="Fraunces, serif" font-size="30" fill="#0FA88A" font-weight="700">₹1.4L</text><text x="14" y="66" font-size="10" fill="#495166" letter-spacing="1">JUN RECOVERED</text></g>
      <g transform="translate(18,164)">
        <text x="0" y="0" font-size="11" fill="#495166" letter-spacing="1">DAILY RECOVERED SLOTS · JUN</text>
        <line x1="0" y1="120" x2="620" y2="120" stroke="#DEE2EC" stroke-width="1"></line>
        <rect x="4" y="90" width="14" height="30" rx="3" fill="#F5A524" opacity="0.5"></rect><rect x="24" y="77" width="14" height="43" rx="3" fill="#F5A524" opacity="0.5166666666666667"></rect><rect x="44" y="67" width="14" height="53" rx="3" fill="#F5A524" opacity="0.5333333333333333"></rect><rect x="64" y="65" width="14" height="55" rx="3" fill="#F5A524" opacity="0.55"></rect><rect x="84" y="68" width="14" height="52" rx="3" fill="#F5A524" opacity="0.5666666666666667"></rect><rect x="104" y="77" width="14" height="43" rx="3" fill="#F5A524" opacity="0.5833333333333334"></rect><rect x="124" y="87" width="14" height="33" rx="3" fill="#F5A524" opacity="0.6"></rect><rect x="144" y="93" width="14" height="27" rx="3" fill="#F5A524" opacity="0.6166666666666667"></rect><rect x="164" y="94" width="14" height="26" rx="3" fill="#F5A524" opacity="0.6333333333333333"></rect><rect x="184" y="87" width="14" height="33" rx="3" fill="#F5A524" opacity="0.65"></rect><rect x="204" y="76" width="14" height="44" rx="3" fill="#F5A524" opacity="0.6666666666666666"></rect><rect x="224" y="62" width="14" height="58" rx="3" fill="#F5A524" opacity="0.6833333333333333"></rect><rect x="244" y="50" width="14" height="70" rx="3" fill="#F5A524" opacity="0.7"></rect><rect x="264" y="44" width="14" height="76" rx="3" fill="#F5A524" opacity="0.7166666666666667"></rect><rect x="284" y="45" width="14" height="75" rx="3" fill="#F5A524" opacity="0.7333333333333334"></rect><rect x="304" y="52" width="14" height="68" rx="3" fill="#F5A524" opacity="0.75"></rect><rect x="324" y="61" width="14" height="59" rx="3" fill="#F5A524" opacity="0.7666666666666666"></rect><rect x="344" y="70" width="14" height="50" rx="3" fill="#F5A524" opacity="0.7833333333333333"></rect><rect x="364" y="74" width="14" height="46" rx="3" fill="#F5A524" opacity="0.8"></rect><rect x="384" y="70" width="14" height="50" rx="3" fill="#F5A524" opacity="0.8166666666666667"></rect><rect x="404" y="61" width="14" height="59" rx="3" fill="#F5A524" opacity="0.8333333333333333"></rect><rect x="424" y="47" width="14" height="73" rx="3" fill="#F5A524" opacity="0.85"></rect><rect x="444" y="34" width="14" height="86" rx="3" fill="#F5A524" opacity="0.8666666666666667"></rect><rect x="464" y="25" width="14" height="95" rx="3" fill="#F5A524" opacity="0.8833333333333333"></rect><rect x="484" y="23" width="14" height="97" rx="3" fill="#F5A524" opacity="0.9"></rect><rect x="504" y="27" width="14" height="93" rx="3" fill="#F5A524" opacity="0.9166666666666667"></rect><rect x="524" y="36" width="14" height="84" rx="3" fill="#F5A524" opacity="0.9333333333333333"></rect><rect x="544" y="45" width="14" height="75" rx="3" fill="#F5A524" opacity="0.95"></rect><rect x="564" y="52" width="14" height="68" rx="3" fill="#F5A524" opacity="0.9666666666666667"></rect><rect x="584" y="52" width="14" height="68" rx="3" fill="#F5A524" opacity="0.9833333333333334"></rect>
        <text x="0" y="140" font-size="9" fill="#495166" letter-spacing="1" font-family="JetBrains Mono, monospace">JUN 1</text>
        <text x="580" y="140" font-size="9" fill="#495166" letter-spacing="1" font-family="JetBrains Mono, monospace">JUN 30</text>
      </g>
    </g>
  
</svg>