<svg xmlns="http://www.w3.org/2000/svg" viewBox="0 0 800 450" width="800" height="450" font-family="Inter, system-ui, sans-serif">
  <defs>
    <linearGradient id="g5157rzbg" x1="0" y1="0" x2="1" y2="1"><stop offset="0" stop-color="#14325C"></stop><stop offset="1" stop-color="#081B37"></stop></linearGradient>
    <radialGradient id="g5157rzgl" cx="0.85" cy="0.1" r="0.7"><stop offset="0" stop-color="#F5A524" stop-opacity="0.18"></stop><stop offset="1" stop-color="#F5A524" stop-opacity="0"></stop></radialGradient>
    <pattern id="g5157rzgr" width="40" height="40" patternUnits="userSpaceOnUse"><path d="M40 0H0V40" fill="none" stroke="rgba(255,255,255,0.05)" stroke-width="1"></path></pattern>
  </defs>
  <rect width="800" height="450" fill="url(#g5157rzbg)"></rect>
  <rect width="800" height="450" fill="url(#g5157rzgr)"></rect>
  <rect width="800" height="450" fill="url(#g5157rzgl)"></rect>
  
    <text x="60" y="50" font-family="JetBrains Mono, monospace" font-size="10" fill="#F5A524" letter-spacing="3">PAPER  →  PULSE</text>
    <g transform="translate(60,80)">
      <rect width="280" height="320" rx="6" fill="#F6EFDD" stroke="#c8b98b"></rect>
      <line x1="0" y1="0" x2="0" y2="320" stroke="#c8503a" stroke-width="4"></line>
      <line x1="20" y1="40" x2="260" y2="40" stroke="#c8b98b" stroke-width="0.6"></line><line x1="20" y1="64" x2="260" y2="64" stroke="#c8b98b" stroke-width="0.6"></line><line x1="20" y1="88" x2="260" y2="88" stroke="#c8b98b" stroke-width="0.6"></line><line x1="20" y1="112" x2="260" y2="112" stroke="#c8b98b" stroke-width="0.6"></line><line x1="20" y1="136" x2="260" y2="136" stroke="#c8b98b" stroke-width="0.6"></line><line x1="20" y1="160" x2="260" y2="160" stroke="#c8b98b" stroke-width="0.6"></line><line x1="20" y1="184" x2="260" y2="184" stroke="#c8b98b" stroke-width="0.6"></line><line x1="20" y1="208" x2="260" y2="208" stroke="#c8b98b" stroke-width="0.6"></line><line x1="20" y1="232" x2="260" y2="232" stroke="#c8b98b" stroke-width="0.6"></line><line x1="20" y1="256" x2="260" y2="256" stroke="#c8b98b" stroke-width="0.6"></line><line x1="20" y1="280" x2="260" y2="280" stroke="#c8b98b" stroke-width="0.6"></line>
      <text x="30" y="56" font-family="Caveat, cursive" font-size="14" fill="#3b3226">Priya N. — 10:00</text><text x="30" y="80" font-family="Caveat, cursive" font-size="14" fill="#3b3226">Rahul V. — ??</text><text x="30" y="104" font-family="Caveat, cursive" font-size="14" fill="#3b3226">Shyam S. — 11:30</text><text x="30" y="128" font-family="Caveat, cursive" font-size="14" fill="#3b3226">Meera R. — 12:00</text><text x="30" y="152" font-family="Caveat, cursive" font-size="14" fill="#3b3226">—— ————</text><text x="30" y="176" font-family="Caveat, cursive" font-size="14" fill="#3b3226">Arun G. — 2:15</text><text x="30" y="200" font-family="Caveat, cursive" font-size="14" fill="#3b3226">—— walk-in</text><text x="30" y="224" font-family="Caveat, cursive" font-size="14" fill="#3b3226">Neha D. — 4:00</text>
      <text x="20" y="30" font-family="JetBrains Mono, monospace" font-size="10" fill="#3b3226" letter-spacing="2">OPD REGISTER · JUN 26</text>
    </g>
    <defs><marker id="arr" viewBox="0 0 10 10" refX="9" refY="5" markerWidth="6" markerHeight="6" orient="auto"><path d="M0 0 L10 5 L0 10 z" fill="#F5A524"></path></marker></defs>
    <path d="M360 240 L410 240" stroke="#F5A524" stroke-width="3" marker-end="url(#arr)"></path>
    <g transform="translate(430,80)"><rect width="310" height="320" rx="14" style="fill:#fff;stroke:rgba(15,42,82,0.1)"></rect>
      <rect width="310" height="46" rx="14" fill="#0F2A52"></rect>
      <text x="18" y="30" font-size="11" fill="#fff" letter-spacing="2" font-family="JetBrains Mono, monospace">NEVIC PULSE · TODAY</text>
      <g transform="translate(18,66)"><rect width="130" height="60" rx="12" fill="#F6F7FB" stroke="#DEE2EC"></rect><text x="14" y="34" font-family="Fraunces, serif" font-size="30" fill="#0B1220" font-weight="700">42</text><text x="14" y="46" font-size="10" fill="#495166" letter-spacing="1">BOOKED</text></g>
      <g transform="translate(162,66)"><rect width="130" height="60" rx="12" fill="#F6F7FB" stroke="#DEE2EC"></rect><text x="14" y="34" font-family="Fraunces, serif" font-size="30" fill="#0FA88A" font-weight="700">96%</text><text x="14" y="46" font-size="10" fill="#495166" letter-spacing="1">SHOW-UP</text></g>
      <g transform="translate(18,142)"><rect width="274" height="24" rx="6" fill="#F6F7FB"></rect><text x="12" y="16" font-family="JetBrains Mono, monospace" font-size="10" fill="#E48A0A">T-11</text><text x="52" y="16" font-size="11" fill="#0B1220">Priya Nair</text><text x="230" y="16" font-size="9" fill="#0FA88A" letter-spacing="1">DONE</text></g><g transform="translate(18,172)"><rect width="274" height="24" rx="6" fill="#F6F7FB"></rect><text x="12" y="16" font-family="JetBrains Mono, monospace" font-size="10" fill="#E48A0A">T-12</text><text x="52" y="16" font-size="11" fill="#0B1220">Rahul Verma</text><text x="230" y="16" font-size="9" fill="#0FA88A" letter-spacing="1">IN</text></g><g transform="translate(18,202)"><rect width="274" height="24" rx="6" fill="#F6F7FB"></rect><text x="12" y="16" font-family="JetBrains Mono, monospace" font-size="10" fill="#E48A0A">T-13</text><text x="52" y="16" font-size="11" fill="#0B1220">Shyam Sharma</text><text x="230" y="16" font-size="9" fill="#0FA88A" letter-spacing="1">WAIT</text></g><g transform="translate(18,232)"><rect width="274" height="24" rx="6" fill="#F6F7FB"></rect><text x="12" y="16" font-family="JetBrains Mono, monospace" font-size="10" fill="#E48A0A">T-14</text><text x="52" y="16" font-size="11" fill="#0B1220">Meera Rao</text><text x="230" y="16" font-size="9" fill="#0FA88A" letter-spacing="1">NEXT</text></g><g transform="translate(18,262)"><rect width="274" height="24" rx="6" fill="#F6F7FB"></rect><text x="12" y="16" font-family="JetBrains Mono, monospace" font-size="10" fill="#E48A0A">T-15</text><text x="52" y="16" font-size="11" fill="#0B1220">Arun G.</text><text x="230" y="16" font-size="9" fill="#0FA88A" letter-spacing="1">SCHED</text></g>
    </g>
  
</svg>