<svg xmlns="http://www.w3.org/2000/svg" viewBox="0 0 800 450" width="800" height="450" font-family="Inter, system-ui, sans-serif">
  <defs>
    <linearGradient id="gzwxorzbg" x1="0" y1="0" x2="1" y2="1"><stop offset="0" stop-color="#E48A0A"></stop><stop offset="1" stop-color="#14325C"></stop></linearGradient>
    <radialGradient id="gzwxorzgl" cx="0.85" cy="0.1" r="0.7"><stop offset="0" stop-color="#F5A524" stop-opacity="0.18"></stop><stop offset="1" stop-color="#F5A524" stop-opacity="0"></stop></radialGradient>
    <pattern id="gzwxorzgr" width="40" height="40" patternUnits="userSpaceOnUse"><path d="M40 0H0V40" fill="none" stroke="rgba(255,255,255,0.05)" stroke-width="1"></path></pattern>
  </defs>
  <rect width="800" height="450" fill="url(#gzwxorzbg)"></rect>
  <rect width="800" height="450" fill="url(#gzwxorzgr)"></rect>
  <rect width="800" height="450" fill="url(#gzwxorzgl)"></rect>
  
    <text x="60" y="50" font-family="JetBrains Mono, monospace" font-size="10" fill="#F5A524" letter-spacing="3">INVISIBLE LEAKS</text>
    <g transform="translate(60,80)"><rect width="680" height="320" rx="14" style="fill:#fff;stroke:rgba(15,42,82,0.1)"></rect>
      <rect width="680" height="46" rx="14" fill="#0F2A52"></rect>
      <text x="18" y="30" font-size="11" fill="#fff" letter-spacing="2" font-family="JetBrains Mono, monospace">LOSS DASHBOARD · APRIL–JUNE</text>
      <g transform="translate(18,70)"><rect width="200" height="100" rx="10" fill="#F6F7FB" stroke="#DEE2EC"></rect><text x="14" y="24" font-size="11" fill="#495166" letter-spacing="1">AFTER-HOURS CALLS</text><text x="14" y="56" font-family="Fraunces, serif" font-size="24" fill="#0B1220" font-weight="700">23</text><text x="14" y="82" font-size="12" fill="#E86B6B" font-weight="600">₹1.2L lost</text></g><g transform="translate(238,70)"><rect width="200" height="100" rx="10" fill="#F6F7FB" stroke="#DEE2EC"></rect><text x="14" y="24" font-size="11" fill="#495166" letter-spacing="1">SILENT DROP-OFFS</text><text x="14" y="56" font-family="Fraunces, serif" font-size="24" fill="#0B1220" font-weight="700">41</text><text x="14" y="82" font-size="12" fill="#E86B6B" font-weight="600">₹2.3L lost</text></g><g transform="translate(458,70)"><rect width="200" height="100" rx="10" fill="#F6F7FB" stroke="#DEE2EC"></rect><text x="14" y="24" font-size="11" fill="#495166" letter-spacing="1">FRONT-DESK TONE</text><text x="14" y="56" font-family="Fraunces, serif" font-size="24" fill="#0B1220" font-weight="700">7 reviews</text><text x="14" y="82" font-size="12" fill="#E86B6B" font-weight="600">1★ lost</text></g><g transform="translate(18,185)"><rect width="200" height="100" rx="10" fill="#F6F7FB" stroke="#DEE2EC"></rect><text x="14" y="24" font-size="11" fill="#495166" letter-spacing="1">SEASON BLINDSPOT</text><text x="14" y="56" font-family="Fraunces, serif" font-size="24" fill="#0B1220" font-weight="700">12 days</text><text x="14" y="82" font-size="12" fill="#F5A524" font-weight="600">₹0.8L lost</text></g><g transform="translate(238,185)"><rect width="200" height="100" rx="10" fill="#F6F7FB" stroke="#DEE2EC"></rect><text x="14" y="24" font-size="11" fill="#495166" letter-spacing="1">NO DATA</text><text x="14" y="56" font-family="Fraunces, serif" font-size="24" fill="#0B1220" font-weight="700">—</text><text x="14" y="82" font-size="12" fill="#495166" font-weight="600">? lost</text></g><g transform="translate(458,185)"><rect width="200" height="100" rx="10" fill="#F6F7FB" stroke="#DEE2EC"></rect><text x="14" y="24" font-size="11" fill="#495166" letter-spacing="1">STAFF TURNOVER</text><text x="14" y="56" font-family="Fraunces, serif" font-size="24" fill="#0B1220" font-weight="700">2 exits</text><text x="14" y="82" font-size="12" fill="#E86B6B" font-weight="600">3 months lost</text></g>
    </g>
  
</svg>