<svg xmlns="http://www.w3.org/2000/svg" viewBox="0 0 800 450" width="800" height="450" font-family="Inter, system-ui, sans-serif">
  <defs>
    <linearGradient id="gnq7wxqbg" x1="0" y1="0" x2="1" y2="1"><stop offset="0" stop-color="#0FA88A"></stop><stop offset="1" stop-color="#0F2A52"></stop></linearGradient>
    <radialGradient id="gnq7wxqgl" cx="0.85" cy="0.1" r="0.7"><stop offset="0" stop-color="#F5A524" stop-opacity="0.18"></stop><stop offset="1" stop-color="#F5A524" stop-opacity="0"></stop></radialGradient>
    <pattern id="gnq7wxqgr" width="40" height="40" patternUnits="userSpaceOnUse"><path d="M40 0H0V40" fill="none" stroke="rgba(255,255,255,0.05)" stroke-width="1"></path></pattern>
  </defs>
  <rect width="800" height="450" fill="url(#gnq7wxqbg)"></rect>
  <rect width="800" height="450" fill="url(#gnq7wxqgr)"></rect>
  <rect width="800" height="450" fill="url(#gnq7wxqgl)"></rect>
  
    <text x="60" y="50" font-family="JetBrains Mono, monospace" font-size="10" fill="#F5A524" letter-spacing="3">RECEPTION · LIVE VIEW</text>
    <g transform="translate(60,80)"><rect width="680" height="320" rx="14" style="fill:#fff;stroke:rgba(15,42,82,0.1)"></rect>
      <rect width="680" height="46" rx="14" fill="#0FA88A"></rect>
      <text x="18" y="30" font-size="11" fill="#fff" letter-spacing="2" font-family="JetBrains Mono, monospace">FRONT DESK · 11:42 AM</text>
      <g transform="translate(18,66)"><rect width="130" height="68" rx="12" fill="#F6F7FB" stroke="#DEE2EC"></rect><text x="14" y="34" font-family="Fraunces, serif" font-size="30" fill="#0F2A52" font-weight="700">8</text><text x="14" y="54" font-size="10" fill="#495166" letter-spacing="1">WAITING</text></g>
      <g transform="translate(162,66)"><rect width="130" height="68" rx="12" fill="#F6F7FB" stroke="#DEE2EC"></rect><text x="14" y="34" font-family="Fraunces, serif" font-size="30" fill="#0F2A52" font-weight="700">12</text><text x="14" y="54" font-size="10" fill="#495166" letter-spacing="1">SEEN TODAY</text></g>
      <g transform="translate(306,66)"><rect width="130" height="68" rx="12" fill="#F6F7FB" stroke="#DEE2EC"></rect><text x="14" y="34" font-family="Fraunces, serif" font-size="30" fill="#F5A524" font-weight="700">3</text><text x="14" y="54" font-size="10" fill="#495166" letter-spacing="1">WALK-INS</text></g>
      <g transform="translate(450,66)"><rect width="130" height="68" rx="12" fill="#F6F7FB" stroke="#DEE2EC"></rect><text x="14" y="34" font-family="Fraunces, serif" font-size="30" fill="#E86B6B" font-weight="700">2</text><text x="14" y="54" font-size="10" fill="#495166" letter-spacing="1">LATE</text></g>
      <g transform="translate(18,150)">
        <text x="0" y="0" font-size="11" fill="#495166" letter-spacing="1">GREETING SCRIPT</text>
        <rect x="0" y="12" width="640" height="42" rx="10" fill="#F6F7FB" stroke="#DEE2EC"></rect>
        <text x="14" y="38" font-size="13" fill="#0B1220" font-style="italic">&#34;Namaste — I&#39;ve seen you. Please have a seat, you&#39;re T-13.&#34;</text>
      </g>
      <g transform="translate(18,214)">
        <g transform="translate(0,0)"><circle cx="12" cy="16" r="8" fill="#0FA88A"></circle><path d="M8 16 l3 3 l6 -7" stroke="#fff" stroke-width="2" fill="none"></path><text x="28" y="20" font-size="11" fill="#0B1220" font-weight="500">ACKNOWLEDGE</text></g><g transform="translate(220,0)"><circle cx="12" cy="16" r="8" fill="#0FA88A"></circle><path d="M8 16 l3 3 l6 -7" stroke="#fff" stroke-width="2" fill="none"></path><text x="28" y="20" font-size="11" fill="#0B1220" font-weight="500">GREET BY NAME</text></g><g transform="translate(440,0)"><circle cx="12" cy="16" r="8" fill="#0FA88A"></circle><path d="M8 16 l3 3 l6 -7" stroke="#fff" stroke-width="2" fill="none"></path><text x="28" y="20" font-size="11" fill="#0B1220" font-weight="500">QUEUE VISIBLE</text></g><g transform="translate(0,46)"><circle cx="12" cy="16" r="8" fill="#0FA88A"></circle><path d="M8 16 l3 3 l6 -7" stroke="#fff" stroke-width="2" fill="none"></path><text x="28" y="20" font-size="11" fill="#0B1220" font-weight="500">WALK-IN → SCHEDULED</text></g><g transform="translate(220,46)"><circle cx="12" cy="16" r="8" fill="#0FA88A"></circle><path d="M8 16 l3 3 l6 -7" stroke="#fff" stroke-width="2" fill="none"></path><text x="28" y="20" font-size="11" fill="#0B1220" font-weight="500">BILL AT DESK</text></g><g transform="translate(440,46)"><circle cx="12" cy="16" r="8" fill="#0FA88A"></circle><path d="M8 16 l3 3 l6 -7" stroke="#fff" stroke-width="2" fill="none"></path><text x="28" y="20" font-size="11" fill="#0B1220" font-weight="500">NO PAPERWORK IN CONSULT</text></g>
      </g>
    </g>
  
</svg>